<?xml version="1.0" encoding="UTF-8" standalone="no"?>
<!-- Created with Inkscape (http://www.inkscape.org/) -->

<svg
   xmlns:dc="http://purl.org/dc/elements/1.1/"
   xmlns:cc="http://creativecommons.org/ns#"
   xmlns:rdf="http://www.w3.org/1999/02/22-rdf-syntax-ns#"
   xmlns:svg="http://www.w3.org/2000/svg"
   xmlns="http://www.w3.org/2000/svg"
   xmlns:sodipodi="http://sodipodi.sourceforge.net/DTD/sodipodi-0.dtd"
   xmlns:inkscape="http://www.inkscape.org/namespaces/inkscape"
   width="52.208"
   height="52.208"
   viewBox="0 0 13.813367 13.813367"
   version="1.1"
   id="svg8"
   inkscape:export-filename="/Users/hanzki/Pictures/nordicban_logo_small.png"
   inkscape:export-xdpi="61.442547"
   inkscape:export-ydpi="61.442547"
   inkscape:version="0.92.0 r"
   sodipodi:docname="nordicban_logo_favicon_small.svg">
  <defs
     id="defs2" />
  <sodipodi:namedview
     id="base"
     pagecolor="#ffffff"
     bordercolor="#666666"
     borderopacity="1.0"
     inkscape:pageopacity="0.0"
     inkscape:pageshadow="2"
     inkscape:zoom="10.1"
     inkscape:cx="30.415736"
     inkscape:cy="22.981416"
     inkscape:document-units="mm"
     inkscape:current-layer="flowRoot4485"
     showgrid="false"
     units="px"
     fit-margin-top="3"
     fit-margin-left="3"
     fit-margin-bottom="3"
     fit-margin-right="3"
     inkscape:pagecheckerboard="false"
     inkscape:showpageshadow="false"
     inkscape:window-width="1590"
     inkscape:window-height="837"
     inkscape:window-x="143"
     inkscape:window-y="124"
     inkscape:window-maximized="0" />
  <metadata
     id="metadata5">
    <rdf:RDF>
      <cc:Work
         rdf:about="">
        <dc:format>image/svg+xml</dc:format>
        <dc:type
           rdf:resource="http://purl.org/dc/dcmitype/StillImage" />
        <dc:title></dc:title>
      </cc:Work>
    </rdf:RDF>
  </metadata>
  <g
     inkscape:label="Layer 1"
     inkscape:groupmode="layer"
     id="layer1"
     transform="translate(-15.161945,-20.727961)">
    <g
       aria-label="NB
AN
"
       transform="scale(0.26458333)"
       style="font-style:normal;font-variant:normal;font-weight:normal;font-stretch:normal;font-size:29.33333397px;line-height:25px;font-family:'Big Caslon';-inkscape-font-specification:'Big Caslon';letter-spacing:0px;word-spacing:0px;fill:#000000;fill-opacity:1;stroke:none"
       id="flowRoot4485">
      <g
         id="g55"
         transform="translate(-1.4932662,-0.0586982)">
        <path
           inkscape:connector-curvature="0"
           id="path40"
           d="m 84.456126,81.693933 v -0.293334 h -7.274667 v 0.293334 q 1.408,0.205333 2.141333,0.733333 0.762667,0.498667 1.056,1.32 0.234667,0.616 0.264,1.701334 0.02933,1.056 0.02933,2.229333 v 9.973334 l -13.904,-16.250668 h -5.954667 v 0.293334 q 0.469334,0.05867 0.968,0.205333 0.528,0.117334 0.968,0.44 0.44,0.293334 0.762667,0.850667 0.322667,0.528 0.410667,1.378667 0.02933,0.850666 0.02933,1.437333 0,0.557333 0,1.085333 0,0.528 0,1.085334 0,0.557333 0,1.408 0,1.965333 -0.02933,3.696 -0.02933,1.701333 -0.088,2.962666 -0.05867,1.672001 -0.176,2.874667 -0.117334,1.202667 -0.528,1.818667 -0.410667,0.64533 -1.114667,0.93867 -0.704,0.264 -1.408,0.352 v 0.29333 h 7.216 v -0.29333 q -1.202667,-0.14667 -1.906667,-0.46934 -0.674666,-0.352 -0.997333,-1.02666 -0.293333,-0.58667 -0.381333,-1.789337 -0.05867,-1.202666 -0.05867,-2.698667 V 83.8646 q 1.994667,2.229333 3.784,4.312 1.789334,2.082666 3.637334,4.282666 1.877333,2.170667 3.930666,4.576 2.053334,2.405334 4.546667,5.280004 0.293333,0.29333 0.528,0.29333 0.146667,0 0.205333,-0.088 0.088,-0.0587 0.088,-0.176 0,-0.85067 0,-1.90667 0,-1.055997 -0.02933,-2.111997 0,-1.085333 0,-2.112 0,-1.056 0,-1.877333 0,-1.965334 0.02933,-3.666667 0.05867,-1.730667 0.117334,-2.992 0.05867,-1.349333 0.117333,-2.522667 0.05867,-1.202666 0.264,-1.642666 0.352,-0.850667 0.997333,-1.261334 0.674667,-0.410666 1.760001,-0.557333 z" />
        <path
           inkscape:connector-curvature="0"
           id="path44"
           d="m 75.230791,127.5206 v -0.29333 q 0.088,0 0.410667,-0.0587 0.352,-0.0587 0.704,-0.20533 0.381333,-0.14667 0.645333,-0.41067 0.293334,-0.264 0.293334,-0.67467 0,-0.264 -0.176,-0.85066 -0.146667,-0.616 -0.44,-1.46667 -0.293334,-0.88 -0.674667,-1.936 -0.381333,-1.056 -0.821333,-2.2 h -7.802667 q -0.44,1.11467 -0.850667,2.14133 -0.410667,0.99734 -0.821333,2.024 -0.616,1.584 -0.616,2.22934 0,0.38133 0.234666,0.64533 0.234667,0.23467 0.586667,0.41067 0.381333,0.14666 0.792,0.23466 0.44,0.0587 0.821333,0.11734 v 0.29333 h -6.248 v -0.32267 q 0.762667,-0.088 1.290667,-0.41066 0.557333,-0.32267 0.645333,-0.44 0.205334,-0.20534 0.674667,-0.968 0.469333,-0.76267 1.144,-2.25867 0.616,-1.37867 1.378667,-3.13867 0.762666,-1.76 1.554666,-3.608 0.821334,-1.87733 1.613334,-3.75466 0.792,-1.90667 1.496,-3.54934 l -0.293333,-0.64533 q 0.528,-0.23467 0.938666,-0.55733 0.44,-0.32267 0.762667,-0.67467 0.322667,-0.352 0.528,-0.67467 0.234667,-0.32266 0.352,-0.528 h 0.234667 q 0.909333,2.43467 1.730666,4.63467 0.821334,2.17067 1.554667,4.19467 0.762667,2.024 1.466667,3.93066 0.704,1.87734 1.408,3.72534 0.322666,0.90933 0.586666,1.52533 0.293334,0.58667 0.645334,1.34933 0.05867,0.11734 0.264,0.41067 0.205333,0.29333 0.528,0.616 0.352,0.29333 0.850666,0.528 0.498667,0.23467 1.173334,0.264 v 0.352 z m -3.842666,-17.776 q -0.176,0.38133 -0.528,1.20267 -0.322667,0.82133 -0.821334,1.99466 -0.498667,1.17334 -1.114667,2.66934 -0.586666,1.46666 -1.290666,3.19733 h 7.304 q -0.498667,-1.32 -1.026667,-2.64 -0.498666,-1.32 -0.997333,-2.52267 -0.469333,-1.232 -0.88,-2.22933 -0.381333,-1.02667 -0.645333,-1.672 z" />
      </g>
      <g
         id="g51"
         transform="translate(-2.3843553,-0.09900825)">
        <path
           inkscape:connector-curvature="0"
           id="path42"
           d="m 107.62348,96.782243 q 0,-1.173333 -0.49866,-2.082667 -0.46934,-0.938666 -1.29067,-1.613333 -0.792,-0.674667 -1.81867,-1.056 -1.02666,-0.410667 -2.08266,-0.528 V 91.38491 q 1.99466,-0.410667 3.22666,-1.584 1.26134,-1.202667 1.26134,-3.138667 0,-1.76 -0.968,-2.904 -0.968,-1.144 -2.464,-1.701333 -0.93867,-0.352001 -1.96534,-0.469334 -0.99733,-0.146667 -2.112,-0.146667 h -9.885333 v 0.293334 q 0.792,0.088 1.232,0.264 0.44,0.146667 0.88,0.616 0.176,0.176 0.264,0.586667 0.117333,0.381333 0.176,0.88 0.088,0.498666 0.117333,1.056 0.02933,0.528 0.02933,1.056 0,0.88 0,1.554666 0.02933,0.674667 0.02933,1.32 0,0.616 0,1.290667 0,0.674667 0,1.554667 0,0.792 0,1.701333 0,0.88 -0.02933,1.730667 0,0.821333 -0.02933,1.525333 0,0.704 0,1.114667 0,0.469333 -0.02933,0.968 -0.02933,0.469333 -0.117334,0.909333 -0.05867,0.439997 -0.146666,0.791997 -0.088,0.32267 -0.234667,0.49867 -0.410667,0.46933 -1.085333,0.73333 -0.645334,0.264 -1.378667,0.38134 v 0.29333 h 10.12 q 1.290667,0 2.669337,-0.088 1.37866,-0.088 2.49333,-0.49867 0.64533,-0.23466 1.29067,-0.67466 0.64533,-0.46934 1.17333,-1.11467 0.528,-0.645333 0.85067,-1.496 0.32266,-0.850667 0.32266,-1.906667 z m -4.576,-10.12 q 0,1.994667 -1.37866,3.344 -1.34934,1.349333 -3.98934,1.496 -0.410667,0.02933 -1.085333,0.02933 -0.674667,0 -1.642667,0 0,-0.146666 0,-0.938666 0,-0.792 0,-1.877334 0,-1.114666 0,-2.346666 0.02933,-1.232 0.05867,-2.258667 0.02933,-0.528 0.02933,-0.850667 0.02933,-0.322666 0.02933,-0.528 0.02933,-0.234666 0.05867,-0.381333 0.02933,-0.146667 0.05867,-0.322667 0.264,-0.088 0.762666,-0.146666 0.498667,-0.05867 1.114667,-0.05867 2.053334,0 3.373337,0.586667 1.11466,0.498666 1.848,1.642666 0.76266,1.144 0.76266,2.610667 z m 1.144,10.442667 q 0,1.496 -0.67466,2.581333 -0.67467,1.055997 -1.90667,1.701337 -0.93867,0.49866 -1.936003,0.616 -0.997333,0.11733 -1.848,0.11733 -0.997334,0 -1.525334,-0.20533 -0.528,-0.23467 -0.792,-0.55734 -0.352,-0.46933 -0.44,-1.17333 -0.05867,-0.733333 -0.088,-1.848 0,-0.498667 -0.02933,-1.173333 0,-0.704001 0,-1.525334 0,-0.850667 0,-1.789333 0,-0.938667 0,-1.877334 h 2.845333 q 0.850667,0 1.466667,0.088 0.645337,0.05867 1.290667,0.264 0.792,0.264 1.43733,0.733334 0.67467,0.44 1.144,1.085333 0.49867,0.616 0.76267,1.378667 0.29333,0.733333 0.29333,1.584 z" />
        <path
           inkscape:connector-curvature="0"
           id="path46"
           d="m 110.08748,106.73424 v -0.29333 h -7.27467 v 0.29333 q 1.408,0.20534 2.14133,0.73334 0.76267,0.49866 1.056,1.32 0.23467,0.616 0.264,1.70133 0.0293,1.056 0.0293,2.22933 v 9.97334 L 92.399479,106.44091 h -5.954667 v 0.29333 q 0.469334,0.0587 0.968,0.20534 0.528,0.11733 0.968,0.44 0.44,0.29333 0.762667,0.85066 0.322667,0.528 0.410667,1.37867 0.02933,0.85067 0.02933,1.43733 0,0.55734 0,1.08534 0,0.528 0,1.08533 0,0.55733 0,1.408 0,1.96533 -0.02933,3.696 -0.02933,1.70133 -0.088,2.96267 -0.05867,1.672 -0.176,2.87466 -0.117334,1.20267 -0.528,1.81867 -0.410667,0.64533 -1.114667,0.93867 -0.704,0.264 -1.408,0.352 v 0.29333 h 7.216 v -0.29333 q -1.202667,-0.14667 -1.906667,-0.46934 -0.674666,-0.352 -0.997333,-1.02666 -0.293333,-0.58667 -0.381333,-1.78934 -0.05867,-1.20266 -0.05867,-2.69866 v -12.37867 q 1.994667,2.22933 3.784,4.312 1.789334,2.08267 3.637334,4.28267 1.877333,2.17066 3.93067,4.576 2.05333,2.40533 4.54666,5.28 0.29334,0.29333 0.528,0.29333 0.14667,0 0.20534,-0.088 0.088,-0.0587 0.088,-0.176 0,-0.85067 0,-1.90667 0,-1.056 -0.0293,-2.112 0,-1.08533 0,-2.112 0,-1.056 0,-1.87733 0,-1.96533 0.0293,-3.66667 0.0587,-1.73066 0.11733,-2.992 0.0587,-1.34933 0.11733,-2.52266 0.0587,-1.20267 0.264,-1.64267 0.352,-0.85067 0.99734,-1.26133 0.67466,-0.41067 1.76,-0.55734 z" />
      </g>
    </g>
  </g>
</svg>
