<?xml version="1.0" encoding="UTF-8" standalone="no"?>
<!-- Created with Inkscape (http://www.inkscape.org/) -->

<svg
   xmlns:dc="http://purl.org/dc/elements/1.1/"
   xmlns:cc="http://creativecommons.org/ns#"
   xmlns:rdf="http://www.w3.org/1999/02/22-rdf-syntax-ns#"
   xmlns:svg="http://www.w3.org/2000/svg"
   xmlns="http://www.w3.org/2000/svg"
   xmlns:sodipodi="http://sodipodi.sourceforge.net/DTD/sodipodi-0.dtd"
   xmlns:inkscape="http://www.inkscape.org/namespaces/inkscape"
   width="73.413193"
   height="73.413193"
   viewBox="0 0 19.423908 19.423907"
   version="1.1"
   id="svg8"
   inkscape:export-filename="/Users/hanzki/Pictures/nordicban_favicon_16.png"
   inkscape:export-xdpi="20.92267"
   inkscape:export-ydpi="20.92267"
   inkscape:version="0.92.0 r"
   sodipodi:docname="nordicban_logo_favicon.svg">
  <defs
     id="defs2" />
  <sodipodi:namedview
     id="base"
     pagecolor="#ffffff"
     bordercolor="#666666"
     borderopacity="1.0"
     inkscape:pageopacity="1"
     inkscape:pageshadow="2"
     inkscape:zoom="7.65"
     inkscape:cx="32.201399"
     inkscape:cy="36.919754"
     inkscape:document-units="mm"
     inkscape:current-layer="flowRoot4485"
     showgrid="false"
     units="px"
     fit-margin-top="1"
     fit-margin-left="2"
     fit-margin-bottom="1"
     fit-margin-right="2"
     inkscape:pagecheckerboard="false"
     inkscape:showpageshadow="false"
     inkscape:window-width="1590"
     inkscape:window-height="837"
     inkscape:window-x="169"
     inkscape:window-y="117"
     inkscape:window-maximized="0" />
  <metadata
     id="metadata5">
    <rdf:RDF>
      <cc:Work
         rdf:about="">
        <dc:format>image/svg+xml</dc:format>
        <dc:type
           rdf:resource="http://purl.org/dc/dcmitype/StillImage" />
        <dc:title></dc:title>
      </cc:Work>
    </rdf:RDF>
  </metadata>
  <g
     inkscape:label="Layer 1"
     inkscape:groupmode="layer"
     id="layer1"
     transform="translate(-16.933308,-21.191182)">
    <g
       aria-label="NOR
BUS
NET"
       transform="matrix(0.26458333,0,0,0.26458333,-65.466074,0)"
       style="font-style:normal;font-variant:normal;font-weight:normal;font-stretch:normal;font-size:29.33333397px;line-height:25px;font-family:'Big Caslon';-inkscape-font-specification:'Big Caslon';letter-spacing:0px;word-spacing:0px;fill:#000000;fill-opacity:1;stroke:none"
       id="flowRoot4485">
      <g
         id="g4561"
         transform="translate(0.73869897,1.4924738e-5)">
        <g
           transform="translate(0,-0.1466665)"
           id="g4547">
          <path
             d="m 336.40942,81.635233 v -0.293334 h -7.27467 v 0.293334 q 1.408,0.205333 2.14134,0.733333 0.76266,0.498667 1.056,1.32 0.23466,0.616 0.264,1.701334 0.0293,1.056 0.0293,2.229333 v 9.973334 l -13.904,-16.250668 h -5.95467 v 0.293334 q 0.46934,0.05867 0.968,0.205333 0.528,0.117334 0.968,0.44 0.44,0.293334 0.76267,0.850667 0.32268,0.528 0.41067,1.378667 0.0293,0.850666 0.0293,1.437333 0,0.557333 0,1.085333 0,0.528 0,1.085334 0,0.557333 0,1.408 0,1.965333 -0.0293,3.696 -0.0293,1.701333 -0.088,2.962666 -0.0587,1.672001 -0.176,2.874667 -0.11734,1.202667 -0.528,1.818667 -0.41067,0.64533 -1.11467,0.93867 -0.704,0.264 -1.408,0.352 v 0.29333 h 7.216 v -0.29333 q -1.20267,-0.14667 -1.90667,-0.46934 -0.67466,-0.352 -0.99733,-1.02666 -0.29333,-0.58667 -0.38133,-1.789337 -0.0587,-1.202666 -0.0587,-2.698667 V 83.8059 q 1.99467,2.229333 3.784,4.312 1.78933,2.082666 3.63733,4.282666 1.87734,2.170667 3.93068,4.576 2.05333,2.405334 4.54667,5.280004 0.29333,0.29333 0.528,0.29333 0.14666,0 0.20533,-0.088 0.088,-0.0587 0.088,-0.176 0,-0.85067 0,-1.90667 0,-1.055997 -0.0293,-2.111997 0,-1.085333 0,-2.112 0,-1.056 0,-1.877333 0,-1.965334 0.0293,-3.666667 0.0587,-1.730667 0.11733,-2.992 0.0587,-1.349333 0.11734,-2.522667 0.0587,-1.202666 0.264,-1.642666 0.352,-0.850667 0.99733,-1.261334 0.67467,-0.410666 1.76,-0.557333 z"
             style="text-align:center;text-anchor:middle"
             id="path4515"
             inkscape:connector-curvature="0" />
          <path
             d="m 333.94538,121.68323 q 0,-1.17333 -0.49866,-2.08266 -0.46934,-0.93867 -1.29067,-1.61334 -0.792,-0.67466 -1.81867,-1.056 -1.02666,-0.41066 -2.08266,-0.528 v -0.11733 q 1.99466,-0.41067 3.22666,-1.584 1.26134,-1.20267 1.26134,-3.13867 0,-1.76 -0.968,-2.904 -0.968,-1.144 -2.464,-1.70133 -0.93867,-0.352 -1.96534,-0.46933 -0.99733,-0.14667 -2.112,-0.14667 h -9.88533 v 0.29333 q 0.792,0.088 1.232,0.264 0.44,0.14667 0.88,0.616 0.176,0.176 0.264,0.58667 0.11733,0.38133 0.176,0.88 0.088,0.49867 0.11733,1.056 0.0293,0.528 0.0293,1.056 0,0.88 0,1.55467 0.0293,0.67466 0.0293,1.32 0,0.616 0,1.29066 0,0.67467 0,1.55467 0,0.792 0,1.70133 0,0.88 -0.0293,1.73067 0,0.82133 -0.0293,1.52533 0,0.704 0,1.11467 0,0.46933 -0.0293,0.968 -0.0293,0.46933 -0.11733,0.90933 -0.0587,0.44 -0.14667,0.792 -0.088,0.32267 -0.23467,0.49867 -0.41066,0.46933 -1.08533,0.73333 -0.64533,0.264 -1.37867,0.38134 v 0.29333 h 10.12 q 1.29067,0 2.66934,-0.088 1.37866,-0.088 2.49333,-0.49867 0.64533,-0.23466 1.29067,-0.67466 0.64533,-0.46934 1.17333,-1.11467 0.528,-0.64533 0.85067,-1.496 0.32266,-0.85067 0.32266,-1.90667 z m -4.576,-10.12 q 0,1.99467 -1.37866,3.344 -1.34934,1.34934 -3.98934,1.496 -0.41066,0.0293 -1.08533,0.0293 -0.67467,0 -1.64267,0 0,-0.14667 0,-0.93867 0,-0.792 0,-1.87733 0,-1.11467 0,-2.34667 0.0293,-1.232 0.0587,-2.25867 0.0293,-0.528 0.0293,-0.85066 0.0293,-0.32267 0.0293,-0.528 0.0293,-0.23467 0.0587,-0.38134 0.0293,-0.14666 0.0587,-0.32266 0.264,-0.088 0.76267,-0.14667 0.49866,-0.0587 1.11466,-0.0587 2.05334,0 3.37334,0.58667 1.11466,0.49867 1.848,1.64267 0.76266,1.144 0.76266,2.61066 z m 1.144,10.44267 q 0,1.496 -0.67466,2.58133 -0.67467,1.056 -1.90667,1.70134 -0.93867,0.49866 -1.936,0.616 -0.99733,0.11733 -1.848,0.11733 -0.99733,0 -1.52533,-0.20533 -0.528,-0.23467 -0.792,-0.55734 -0.352,-0.46933 -0.44,-1.17333 -0.0587,-0.73333 -0.088,-1.848 0,-0.49867 -0.0293,-1.17333 0,-0.704 0,-1.52534 0,-0.85066 0,-1.78933 0,-0.93867 0,-1.87733 h 2.84534 q 0.85066,0 1.46666,0.088 0.64534,0.0587 1.29067,0.264 0.792,0.264 1.43733,0.73333 0.67467,0.44 1.144,1.08533 0.49867,0.616 0.76267,1.37867 0.29333,0.73333 0.29333,1.584 z"
             style="text-align:center;text-anchor:middle"
             id="path4521"
             inkscape:connector-curvature="0" />
          <path
             d="m 336.40943,131.63523 v -0.29333 h -7.27467 v 0.29333 q 1.408,0.20534 2.14133,0.73334 0.76267,0.49866 1.056,1.32 0.23467,0.616 0.264,1.70133 0.0293,1.056 0.0293,2.22933 v 9.97334 l -13.904,-16.25067 h -5.95467 v 0.29333 q 0.46933,0.0587 0.968,0.20534 0.528,0.11733 0.968,0.44 0.44,0.29333 0.76267,0.85066 0.32266,0.528 0.41066,1.37867 0.0293,0.85067 0.0293,1.43733 0,0.55734 0,1.08534 0,0.528 0,1.08533 0,0.55733 0,1.408 0,1.96533 -0.0293,3.696 -0.0293,1.70133 -0.088,2.96267 -0.0587,1.672 -0.176,2.87466 -0.11733,1.20267 -0.528,1.81867 -0.41066,0.64533 -1.11466,0.93867 -0.704,0.264 -1.408,0.352 v 0.29333 h 7.216 v -0.29333 q -1.20267,-0.14667 -1.90667,-0.46934 -0.67467,-0.352 -0.99733,-1.02666 -0.29334,-0.58667 -0.38134,-1.78934 -0.0587,-1.20266 -0.0587,-2.69866 V 133.8059 q 1.99466,2.22933 3.784,4.312 1.78933,2.08267 3.63733,4.28267 1.87733,2.17066 3.93067,4.576 2.05333,2.40533 4.54666,5.28 0.29334,0.29333 0.528,0.29333 0.14667,0 0.20534,-0.088 0.088,-0.0587 0.088,-0.176 0,-0.85067 0,-1.90667 0,-1.056 -0.0293,-2.112 0,-1.08533 0,-2.112 0,-1.056 0,-1.87733 0,-1.96533 0.0293,-3.66667 0.0587,-1.73066 0.11733,-2.992 0.0587,-1.34933 0.11733,-2.52266 0.0587,-1.20267 0.264,-1.64267 0.352,-0.85067 0.99734,-1.26133 0.67466,-0.41067 1.76,-0.55734 z"
             style="text-align:center;text-anchor:middle"
             id="path4527"
             inkscape:connector-curvature="0" />
        </g>
        <g
           transform="translate(-0.69242234,0.04407)"
           id="g4542">
          <path
             d="m 359.86842,91.755233 q 0,-2.112 -0.73334,-4.048 -0.73333,-1.936 -2.112,-3.402667 -1.37867,-1.496 -3.37333,-2.376 -1.96534,-0.88 -4.45867,-0.88 -2.288,0 -4.37067,0.762667 -2.05333,0.733333 -3.608,2.141333 -1.52533,1.378667 -2.43466,3.402667 -0.90934,1.994667 -0.90934,4.517333 0,2.376 0.85067,4.370667 0.88,1.965334 2.376,3.402667 1.496,1.408 3.49067,2.2 1.99466,0.76267 4.224,0.76267 2.25866,0 4.25333,-0.792 2.024,-0.792 3.52,-2.25867 1.52534,-1.466667 2.40534,-3.461334 0.88,-1.994666 0.88,-4.341333 z m -3.63734,0.02933 q 0,1.848 -0.46933,3.696 -0.44,1.848001 -1.34934,3.344001 -0.90933,1.466666 -2.288,2.405336 -1.34933,0.93867 -3.19733,0.93867 -1.848,0 -3.256,-0.85067 -1.37867,-0.85067 -2.31733,-2.25867 -0.90934,-1.408 -1.37867,-3.256 -0.46933,-1.848 -0.46933,-3.842667 0,-1.906666 0.41066,-3.754666 0.44,-1.877334 1.32,-3.344 0.90934,-1.466667 2.288,-2.376 1.408,-0.938667 3.31467,-0.938667 1.87733,0 3.256,0.938667 1.37867,0.909333 2.288,2.405333 0.93867,1.466667 1.37867,3.285333 0.46933,1.818667 0.46933,3.608 z"
             style="text-align:center;text-anchor:middle"
             id="path4517"
             inkscape:connector-curvature="0" />
          <path
             d="m 360.44041,106.63523 v -0.29333 h -7.27466 v 0.29333 q 1.408,0.20534 2.112,0.73334 0.73333,0.49866 1.02666,1.32 0.11734,0.29333 0.176,0.792 0.0587,0.46933 0.088,1.02666 0.0293,0.55734 0.0293,1.17334 0.0293,0.616 0.0293,1.20266 0,0.616 0,1.20267 0,0.55733 0,1.144 0,0.55733 0,1.20267 0,0.64533 0,1.43733 0,0.99733 -0.088,2.05333 -0.0587,1.02667 -0.29333,2.024 -0.20534,0.99734 -0.67467,1.87734 -0.44,0.88 -1.232,1.55466 -0.76267,0.67467 -1.936,1.056 -1.144,0.38134 -2.816,0.38134 -1.46667,0 -2.61067,-0.46934 -1.144,-0.49866 -1.936,-1.37866 -0.792,-0.90934 -1.232,-2.17067 -0.44,-1.29067 -0.46933,-2.84533 0,-0.704 -0.0293,-1.32 0,-0.64534 0,-1.32 0,-0.704 0,-1.496 0,-0.792 0,-1.78934 0,-0.792 0,-1.37866 0,-0.616 0,-1.17334 0,-0.55733 0,-1.144 0.0293,-0.58666 0.0587,-1.34933 0.0293,-0.67467 0.29334,-1.11467 0.264,-0.44 0.64533,-0.67466 0.38133,-0.264 0.85067,-0.38134 0.46933,-0.11733 0.88,-0.176 v -0.29333 h -8.74134 v 0.29333 q 0.76267,0.088 1.34934,0.32267 0.616,0.20533 1.02666,0.704 0.176,0.20533 0.264,0.58667 0.088,0.352 0.11734,0.82133 0.0587,0.44 0.0587,0.968 0,0.528 0,1.056 v 3.90133 q 0,1.61334 -0.0293,2.93334 0,1.32 0,2.14133 0,0.352 0.0293,1.08533 0.0587,0.704 0.29334,1.584 0.264,0.85067 0.76266,1.76 0.528,0.88 1.46667,1.64267 0.93867,0.73333 2.376,1.17333 1.46667,0.44 3.57867,0.44 2.14133,0 3.608,-0.44 1.46666,-0.46933 2.40533,-1.232 0.93867,-0.792 1.43733,-1.73066 0.528,-0.968 0.76267,-1.90667 0.23467,-0.968 0.264,-1.81867 0.0587,-0.85066 0.088,-1.408 0.0587,-1.96533 0.088,-3.52 0.0587,-1.55466 0.088,-2.816 0,-0.67466 0.0293,-1.34933 0.0293,-0.704 0.088,-1.32 0.0587,-0.616 0.11734,-1.08533 0.088,-0.46934 0.176,-0.67467 0.352,-0.85067 0.968,-1.26133 0.64533,-0.41067 1.73066,-0.55734 z"
             style="text-align:center;text-anchor:middle"
             id="path4523"
             inkscape:connector-curvature="0" />
          <path
             d="m 358.57766,146.85923 -0.32267,-0.088 q -0.73333,1.26134 -1.43733,2.17067 -0.67467,0.88 -1.408,1.496 -0.73333,0.616 -1.52533,0.968 -0.792,0.32267 -1.73067,0.44 -0.85067,0.11733 -1.64267,0.14667 -0.76266,0.0293 -1.26133,0.0293 -1.17333,0 -2.17066,-0.176 -0.99733,-0.176 -1.26133,-0.58667 -0.264,-0.41066 -0.352,-1.232 -0.0587,-0.85066 -0.088,-1.78933 0,-0.29333 -0.0293,-0.704 0,-0.44 0,-0.90933 0,-0.49867 0,-0.99734 0,-0.49866 0,-0.88 0,-0.85066 0,-1.64266 0,-0.792 0.0587,-1.20267 0.46934,0 0.76267,0 0.32267,0 0.58667,0 0.29333,0 0.58666,0.0293 0.29334,0 0.73334,0.0293 0.88,0.0587 1.52533,0.32266 0.67467,0.264 1.144,0.67467 0.528,0.49867 0.99733,1.496 0.49867,0.99733 0.73334,1.936 h 0.352 v -9.24 h -0.352 q -0.176,0.82133 -0.41067,1.496 -0.20533,0.64533 -0.58667,1.144 -0.352,0.49867 -0.93866,0.85067 -0.58668,0.352 -1.46668,0.55733 -0.38133,0.088 -0.968,0.14667 -0.55733,0.0293 -1.144,0.0587 -0.55733,0.0293 -0.99733,0.0293 -0.44,0 -0.58667,0 0,-0.088 0,-0.32267 0,-0.264 -0.0293,-0.73333 0,-0.49867 0,-1.26134 0,-0.76266 0,-1.87733 0,-1.936 0.0293,-3.40267 0.0587,-1.46666 0.11733,-1.936 0.29334,-0.0587 0.93867,-0.088 0.67467,-0.0587 1.29067,-0.0587 1.936,0 3.28533,0.176 1.34933,0.176 1.848,0.41066 2.08267,1.02667 4.45867,3.98934 l 0.29333,-0.14667 -1.99467,-4.84 h -16.192 v 0.29333 q 0.792,0.11734 1.29067,0.264 0.49867,0.11734 0.93867,0.58667 0.176,0.176 0.264,0.58667 0.11733,0.38133 0.14666,0.88 0.0587,0.49866 0.0587,1.056 0.0293,0.55733 0.0293,1.08533 v 5.72 q 0,0.792 0,1.70133 0,0.88 -0.0293,1.73067 0,0.82133 -0.0293,1.52533 0,0.704 0,1.11467 0,0.46933 -0.0293,0.968 -0.0293,0.46933 -0.11733,0.90933 -0.0587,0.44 -0.14666,0.792 -0.088,0.32267 -0.23467,0.49867 -0.41066,0.46933 -1.05599,0.73333 -0.616,0.264 -1.34934,0.38134 v 0.29333 h 17.952 z"
             style="text-align:center;text-anchor:middle"
             id="path4529"
             inkscape:connector-curvature="0" />
        </g>
        <g
           transform="translate(3.8146973e-6,-0.087965)"
           id="g4537">
          <path
             d="m 382.17717,102.4619 v -0.29333 q -1.37867,-0.20534 -2.40534,-0.90934 -1.02667,-0.704 -2.112,-2.22933 -0.704,-0.997333 -1.61333,-2.288 -0.88,-1.290667 -1.64267,-2.405334 -0.44,-0.616 -0.90933,-1.114666 -0.46934,-0.498667 -0.968,-0.762667 v -0.088 q 0.968,-0.322667 1.848,-0.792 0.88,-0.469333 1.52533,-1.114667 0.67467,-0.674666 1.056,-1.525333 0.41067,-0.88 0.41067,-1.965333 0,-1.76 -0.792,-2.904 -0.792,-1.173334 -2.08267,-1.848 -1.26133,-0.674667 -2.78667,-0.792001 -1.52533,-0.117333 -3.49066,-0.117333 -0.792,0 -2.05334,0 -1.26133,0 -2.52266,0.02933 -1.26134,0 -2.25867,0 -0.968,0 -1.20267,0 v 0.293334 q 0.792,0.117333 1.32,0.293333 0.55734,0.146667 0.99734,0.616 0.176,0.176 0.264,0.586667 0.11733,0.381333 0.14666,0.88 0.0587,0.469333 0.0587,1.026667 0.0293,0.528 0.0293,1.056 v 5.72 q 0,0.792 0,1.701333 0,0.88 -0.0293,1.730667 0,0.821333 -0.0293,1.525333 0,0.704 0,1.114667 0,0.469333 -0.0293,0.968 -0.0293,0.498667 -0.088,0.938667 -0.0293,0.440006 -0.11733,0.792006 -0.088,0.352 -0.23467,0.528 -0.38133,0.46933 -1.056,0.704 -0.67466,0.23466 -1.408,0.352 v 0.29333 h 9.38667 v -0.29333 q -1.20267,-0.0587 -1.87733,-0.44 -0.67467,-0.41067 -0.90934,-0.792 -0.29333,-0.44 -0.32266,-1.114673 -0.0293,-0.674667 -0.0587,-1.613333 -0.0293,-0.968 -0.0293,-2.376001 0,-1.408 0,-3.314666 0.41066,0.02933 0.67467,0.02933 0.29334,0 0.85066,0.117333 0.76268,0.146667 1.43733,0.733334 0.704,0.586666 1.29067,1.261333 0.704,0.821333 1.20267,1.496 0.528,0.645333 0.968,1.290667 0.44,0.645333 0.85066,1.32 0.44,0.645333 0.99734,1.466666 0.46933,0.67466 0.67467,1.02666 0.23466,0.32267 0.38134,0.49867 0.14666,0.176 0.264,0.32267 0.11733,0.11733 0.38133,0.38133 z m -8.18401,-15.664 q 0,0.792 -0.20533,1.525333 -0.20533,0.733333 -0.64533,1.378667 -0.41067,0.616 -1.08534,1.114666 -0.67466,0.498667 -1.61333,0.792 -0.968,0.322667 -2.024,0.44 -1.02667,0.088 -2.22933,0.088 0,-0.234666 0,-1.114666 0,-0.909334 0,-2.112 0,-1.202667 0,-2.493334 0.0293,-1.290666 0.0587,-2.317333 0.0293,-0.674667 0.0293,-1.026667 0.0293,-0.381333 0.0293,-0.586666 0.0293,-0.205334 0.0587,-0.322667 0.0293,-0.146667 0.0587,-0.322667 0.20534,-0.02933 0.58667,-0.05867 0.38133,-0.02933 0.99733,-0.02933 0.85067,0 1.61334,0.146667 0.792,0.146667 1.496,0.469333 1.408,0.674667 2.14133,1.818667 0.73333,1.144 0.73333,2.610667 z"
             style="text-align:center;text-anchor:middle"
             id="path4519"
             inkscape:connector-curvature="0" />
          <path
             d="m 378.34922,121.68323 q 0,-2.08266 -1.11467,-3.46133 -1.08533,-1.408 -3.08,-2.14133 -0.55733,-0.20534 -1.08533,-0.38134 -0.49867,-0.176 -0.99733,-0.32266 -0.49867,-0.176 -1.02667,-0.352 -0.49867,-0.176 -1.08533,-0.41067 -1.496,-0.55733 -2.43467,-1.496 -0.93867,-0.93867 -0.93867,-2.49333 0,-0.99734 0.32267,-1.76 0.352,-0.792 0.93867,-1.32 0.616,-0.528 1.408,-0.792 0.82133,-0.264 1.73066,-0.264 1.144,0 2.08267,0.46933 0.93867,0.46933 1.672,1.232 0.73333,0.73333 1.29067,1.70133 0.55733,0.93867 0.90933,1.90667 h 0.32267 v -5.42667 h -0.32267 q -0.23467,0.352 -0.528,0.704 -0.264,0.352 -0.352,0.352 -0.0293,0 -0.352,-0.20533 -0.29333,-0.23467 -0.90933,-0.49867 -0.58667,-0.264 -1.52534,-0.46933 -0.93866,-0.23467 -2.25866,-0.23467 -1.408,0 -2.69867,0.38134 -1.26133,0.352 -2.22933,1.11466 -0.968,0.76267 -1.55467,1.90667 -0.55733,1.144 -0.55733,2.728 0,0.93867 0.32266,1.78933 0.32267,0.82134 0.85067,1.52534 0.528,0.67466 1.232,1.20266 0.704,0.49867 1.46667,0.792 0.67466,0.264 1.144,0.44 0.49866,0.14667 0.93866,0.32267 0.46934,0.14667 0.99734,0.32267 0.528,0.176 1.232,0.44 0.704,0.264 1.32,0.58666 0.616,0.32267 1.056,0.792 0.46933,0.44 0.73333,1.056 0.264,0.616 0.264,1.43734 0,2.024 -1.34933,3.22666 -1.34934,1.17334 -3.52,1.17334 -0.76267,0 -1.584,-0.264 -0.82134,-0.264 -1.32,-0.528 -0.49867,-0.264 -1.056,-0.76267 -0.528,-0.49867 -1.02667,-1.144 -0.46933,-0.67467 -0.88,-1.408 -0.41067,-0.76267 -0.67467,-1.55467 h -0.29333 l 0.088,5.83734 h 0.264 q 0.23467,-0.32267 0.528,-0.67467 0.29333,-0.352 0.38133,-0.352 0.088,0 0.41067,0.20533 0.352,0.20534 1.02667,0.46934 0.67466,0.23466 1.70133,0.41066 1.02667,0.176 2.464,0.176 1.672,0 3.08,-0.38133 1.408,-0.38133 2.40533,-1.17333 1.02667,-0.792 1.584,-1.90667 0.58667,-1.11467 0.58667,-2.52267 z"
             style="text-align:center;text-anchor:middle"
             id="path4525"
             inkscape:connector-curvature="0" />
          <path
             d="m 382.23588,136.76857 -0.93866,-5.72 q -0.67467,0.20533 -1.32,0.352 -0.616,0.11733 -1.584,0.14666 -1.11467,0 -1.99467,0.0293 -0.88,0 -1.70133,0.0293 -0.82134,0 -1.70134,0 -0.85066,0 -1.936,0 -1.08533,0 -1.96532,0 -0.85067,0 -1.67201,0 -0.82133,0 -1.70133,0 -0.88,-0.0293 -1.99466,-0.0587 -1.08533,-0.0293 -1.67201,-0.11733 -0.55732,-0.088 -1.232,-0.23467 l -0.88,5.57334 0.264,0.088 q 0.176,-0.528 0.46933,-1.08534 0.32267,-0.55733 0.64534,-1.02666 0.352,-0.49867 0.64533,-0.90934 0.32267,-0.41066 0.55733,-0.616 0.616,-0.58666 1.32,-0.82133 0.73334,-0.23467 1.848,-0.264 0.55734,0 0.968,0 0.44,-0.0293 0.82134,-0.0293 0.41066,0 0.85066,0 0.46934,0 1.08534,0 v 9.70933 q 0,0.792 0,1.672 0,0.88 -0.0293,1.70133 0,0.82134 -0.0293,1.496 0,0.67467 0,1.08534 0,0.46933 -0.0293,0.968 0,0.49866 -0.0587,0.93866 -0.0293,0.41067 -0.11733,0.76267 -0.0587,0.32267 -0.20534,0.46933 -0.67466,0.76267 -1.37866,0.968 -0.704,0.20534 -1.46667,0.29334 v 0.29333 h 9.53333 v -0.29333 q -0.64533,-0.11734 -1.46666,-0.352 -0.792,-0.23467 -1.23201,-0.88 -0.23467,-0.32267 -0.29334,-1.08534 -0.0293,-0.792 -0.0293,-1.64266 v -6.512 q 0,-0.90934 0,-2.22934 0,-1.34933 0,-2.728 0,-1.37866 0,-2.64 0.0293,-1.26133 0.0293,-1.99466 0.64534,0 1.08534,0 0.46933,0 0.85066,0 0.41067,0 0.82134,0.0293 0.41066,0 0.96801,0 1.11466,0.0293 1.81866,0.23467 0.73334,0.176 1.34934,0.76266 0.23466,0.20534 0.55732,0.64534 0.32268,0.41066 0.64533,0.90933 0.352,0.49867 0.67467,1.08533 0.32268,0.55734 0.55733,1.08534 z"
             style="text-align:center;text-anchor:middle"
             id="path4531"
             inkscape:connector-curvature="0" />
        </g>
      </g>
    </g>
  </g>
</svg>
